<svg width="30" height="44" viewBox="0 0 30 44" fill="none" xmlns="http://www.w3.org/2000/svg">
<g clip-path="url(#clip0_4130_511)" filter="url(#filter0_d_4130_511)">
<path d="M15.0051 2.93302C18.1307 6.9011 19.7993 11.7944 19.7388 16.8155V18.0141L20.77 18.6416C22.1025 19.4482 23.0962 20.6993 23.5702 22.1669C23.154 21.8605 22.7187 21.5803 22.2668 21.3278L19.5168 19.7838L19.0226 22.9001C18.9798 23.1755 18.9225 23.4485 18.8508 23.718H11.145C11.0304 23.3655 10.9373 23.0129 10.8514 22.6463L10.2284 19.8261L7.6932 21.2362C7.26967 21.473 6.86075 21.7344 6.4686 22.0188C6.95176 20.5682 7.92475 19.3242 9.22576 18.4935L10.2069 17.866V16.7521C10.2246 11.7513 11.9132 6.89523 15.0122 2.93302H15.0051ZM15.0122 0C14.8515 0.000390307 14.6963 0.0579856 14.5754 0.162162L14.5109 0.218566C10.3813 4.76564 8.08818 10.6454 8.0656 16.745C6.31319 17.8643 5.01603 19.5543 4.40078 21.5197C3.78554 23.485 3.89135 25.6007 4.69971 27.4971C5.55128 25.6455 6.97483 24.1058 8.76742 23.0975C8.9472 23.8642 9.18662 24.6161 9.48357 25.3467C9.52123 25.4871 9.6047 25.6114 9.72115 25.7006C9.8376 25.7898 9.98058 25.8388 10.1281 25.8402H20.0682C20.2687 25.8402 20.4692 25.6498 20.5695 25.3537C20.8593 24.6592 21.0614 23.9322 21.1711 23.1892C22.9671 24.1932 24.3918 25.7342 25.2388 27.5887C26.0959 25.7017 26.2286 23.5727 25.6123 21.5967C24.9959 19.6206 23.6724 17.9319 21.8872 16.8437C21.958 10.7082 19.6771 4.77179 15.4992 0.218566C15.437 0.150085 15.3608 0.0952397 15.2757 0.0575871C15.1906 0.0199344 15.0984 0.000314749 15.0051 0L15.0122 0Z" fill="#4EA8DE"/>
<path d="M15.0051 16.1598C14.455 16.1598 13.9173 15.9995 13.4596 15.699C13.002 15.3986 12.6449 14.9715 12.4335 14.4716C12.222 13.9716 12.1656 13.4213 12.2713 12.8898C12.3771 12.3584 12.6403 11.8697 13.0278 11.4853C13.4152 11.1009 13.9096 10.838 14.4486 10.7298C14.9875 10.6216 15.547 10.6729 16.0564 10.8773C16.5658 11.0816 17.0023 11.4298 17.311 11.8781C17.6197 12.3263 17.7867 12.8545 17.7909 13.396C17.7995 13.7469 17.7377 14.0961 17.6092 14.4235C17.4806 14.751 17.2878 15.0503 17.0417 15.3043C16.7957 15.5583 16.5012 15.7622 16.175 15.9041C15.8489 16.0461 15.4976 16.1234 15.1412 16.1316C15.0961 16.1387 15.0502 16.1387 15.0051 16.1316V16.1598Z" fill="#4EA8DE"/>
<path d="M18.8794 27.5958C18.7002 27.5901 18.5217 27.6198 18.3543 27.683C18.1869 27.7462 18.034 27.8416 17.9046 27.9638C17.7752 28.086 17.6719 28.2323 17.6007 28.3943C17.5295 28.5563 17.4919 28.7307 17.4901 28.9072V33.067C17.4901 33.4297 17.6365 33.7776 17.897 34.0342C18.1576 34.2907 18.511 34.4348 18.8794 34.4348C19.2479 34.4348 19.6013 34.2907 19.8618 34.0342C20.1224 33.7776 20.2688 33.4297 20.2688 33.067V28.9636C20.2745 28.7877 20.2446 28.6126 20.1808 28.4482C20.1171 28.2839 20.0208 28.1337 19.8974 28.0064C19.7741 27.879 19.6263 27.7772 19.4626 27.7067C19.2989 27.6362 19.1226 27.5985 18.9439 27.5958H18.8794Z" fill="#5E60CE"/>
<path d="M11.1451 27.5957C10.9628 27.5863 10.7805 27.6129 10.609 27.6742C10.4374 27.7355 10.2802 27.8302 10.1465 27.9525C10.0129 28.0749 9.90565 28.2224 9.83113 28.3864C9.75661 28.5504 9.71636 28.7275 9.71277 28.9071V33.067C9.71277 33.4297 9.85914 33.7776 10.1197 34.0341C10.3802 34.2906 10.7336 34.4348 11.1021 34.4348C11.4706 34.4348 11.8239 34.2906 12.0845 34.0341C12.345 33.7776 12.4914 33.4297 12.4914 33.067V28.9635C12.4971 28.7877 12.4673 28.6125 12.4035 28.4482C12.3398 28.2838 12.2434 28.1336 12.1201 28.0063C11.9968 27.879 11.849 27.7771 11.6852 27.7067C11.5215 27.6362 11.3452 27.5985 11.1665 27.5957H11.1451Z" fill="#5E60CE"/>
<path d="M14.9048 27.5958C14.7261 27.592 14.5484 27.623 14.3819 27.6869C14.2153 27.7507 14.0632 27.8463 13.9342 27.9681C13.8052 28.0899 13.7018 28.2355 13.63 28.3966C13.5581 28.5577 13.5192 28.7312 13.5155 28.9072V34.6392C13.5155 35.002 13.6619 35.3499 13.9224 35.6064C14.183 35.8629 14.5364 36.007 14.9048 36.007C15.2733 36.007 15.6267 35.8629 15.8872 35.6064C16.1478 35.3499 16.2941 35.002 16.2941 34.6392V28.9988C16.2999 28.823 16.27 28.6478 16.2062 28.4835C16.1425 28.3191 16.0461 28.1689 15.9228 28.0416C15.7995 27.9143 15.6517 27.8124 15.488 27.7419C15.3243 27.6714 15.1479 27.6337 14.9693 27.631L14.9048 27.5958Z" fill="#5E60CE"/>
</g>
<defs>
<filter id="filter0_d_4130_511" x="0.00561523" y="0" width="29.9888" height="44.0071" filterUnits="userSpaceOnUse" color-interpolation-filters="sRGB">
<feFlood flood-opacity="0" result="BackgroundImageFix"/>
<feColorMatrix in="SourceAlpha" type="matrix" values="0 0 0 0 0 0 0 0 0 0 0 0 0 0 0 0 0 0 127 0" result="hardAlpha"/>
<feOffset dy="4"/>
<feGaussianBlur stdDeviation="2"/>
<feComposite in2="hardAlpha" operator="out"/>
<feColorMatrix type="matrix" values="0 0 0 0 0 0 0 0 0 0 0 0 0 0 0 0 0 0 0.25 0"/>
<feBlend mode="normal" in2="BackgroundImageFix" result="effect1_dropShadow_4130_511"/>
<feBlend mode="normal" in="SourceGraphic" in2="effect1_dropShadow_4130_511" result="shape"/>
</filter>
<clipPath id="clip0_4130_511">
<rect width="21.9888" height="36.007" fill="white" transform="translate(4.00562)"/>
</clipPath>
</defs>
</svg>
